<svg width="682" height="1024" viewBox="0 0 682 1024" fill="none" xmlns="http://www.w3.org/2000/svg">
<path d="M502.479 79.1688C497.324 81.431 492.208 81.2971 487.13 78.7673C482.052 76.2375 478.524 72.0652 476.548 66.2504C474.572 60.4357 474.716 54.6524 476.979 48.9006C479.242 43.1489 482.952 39.1419 488.106 36.8797C493.261 34.6175 498.377 34.7513 503.456 37.2811C508.534 39.811 512.061 43.9833 514.037 49.798C516.013 55.6128 515.87 61.396 513.606 67.1478C511.343 72.8996 507.634 76.9066 502.479 79.1688ZM570.618 114.871L554.411 106.797C553.13 108.574 551.673 110.226 550.038 111.754C548.403 113.281 546.531 114.508 544.422 115.433C538.565 118.004 532.799 117.877 527.126 115.054C521.454 112.226 517.496 107.508 515.25 100.9C513.004 94.2922 513.144 87.7754 515.671 81.3494C518.201 74.9257 522.395 70.4284 528.253 67.8578C534.11 65.2871 539.876 65.4135 545.549 68.2369C551.221 71.0652 555.179 75.7832 557.425 82.3909C558.234 84.7697 558.685 87.1534 558.779 89.542C558.872 91.9307 558.765 94.2558 558.457 96.5172L574.663 104.591C575.852 105.183 576.701 106.228 577.21 107.726C577.719 109.224 577.708 110.646 577.179 111.992C576.649 113.338 575.72 114.302 574.392 114.885C573.065 115.468 571.807 115.463 570.618 114.871ZM540.829 104.861C544.109 103.421 546.448 100.927 547.844 97.3779C549.241 93.8289 549.31 90.2043 548.053 86.504C546.795 82.8037 544.6 80.1731 541.466 78.6121C538.333 77.0511 535.126 76.9904 531.846 78.43C528.566 79.8696 526.227 82.3639 524.831 85.9128C523.434 89.4618 523.365 93.0864 524.622 96.7867C525.88 100.487 528.075 103.118 531.209 104.679C534.342 106.24 537.549 106.3 540.829 104.861ZM488.735 133.797C486.158 134.928 483.599 134.863 481.059 133.6C478.521 132.333 476.758 130.245 475.77 127.338L474.377 123.241C473.359 120.246 473.08 117.179 473.539 114.042C473.999 110.904 475.175 108.16 477.069 105.81C480.274 101.772 484.106 97.8625 488.566 94.083C493.025 90.3035 498.301 87.077 504.393 84.4035C503.759 87.8202 503.563 91.2717 503.803 94.7582C504.048 98.2468 504.74 101.665 505.878 105.013C506.986 108.273 508.48 111.286 510.361 114.053C512.246 116.821 514.449 119.273 516.969 121.406L488.735 133.797Z" fill="#FBF8E4"/>
<rect x="14.8817" y="22" width="658.257" height="980" rx="15" fill="#2270E5"/>
<g clip-path="url(#clip0_11_36)">
<path d="M112.56 725.631C106.632 723.474 100.194 724.081 94.6598 727.318C89.1261 730.555 84.9508 736.157 83.0522 742.893L68.7352 793.684C66.8366 800.419 62.6612 806.022 57.1276 809.259C51.5939 812.496 45.1552 813.103 39.2279 810.945L28.0535 806.878L20.895 832.274L32.0694 836.341C37.9966 838.498 42.927 843.243 45.7757 849.531C48.6244 855.819 49.1582 863.136 47.2597 869.871L32.9427 920.663C31.0441 927.398 31.5779 934.714 34.4267 941.003C37.2754 947.291 42.2057 952.035 48.133 954.193L70.4818 962.327L77.6403 936.931L55.2915 928.797L73.1877 865.308C75.0863 858.572 74.5525 851.256 71.7037 844.968C68.855 838.68 63.9247 833.935 57.9974 831.778C63.9247 833.935 70.3634 833.328 75.8971 830.091C81.4308 826.854 85.6062 821.252 87.5047 814.516L105.401 751.027L127.75 759.162L134.908 733.766M201.955 758.169C207.882 760.327 212.812 765.071 215.661 771.359C218.51 777.647 219.044 784.964 217.145 791.699L202.828 842.491C200.929 849.226 201.463 856.543 204.312 862.831C207.161 869.119 212.091 873.863 218.018 876.021L229.193 880.088L222.034 905.484L210.86 901.417C204.933 899.259 198.494 899.866 192.96 903.103C187.426 906.34 183.251 911.942 181.352 918.678L167.035 969.469C165.137 976.205 160.962 981.807 155.428 985.044C149.894 988.281 143.455 988.888 137.528 986.73L115.179 978.596L122.338 953.2L144.687 961.335L162.583 897.846C164.481 891.11 168.657 885.508 174.191 882.271C179.724 879.033 186.163 878.427 192.09 880.584C186.163 878.427 181.233 873.682 178.384 867.394C175.535 861.106 175.001 853.789 176.9 847.054L194.796 783.565L172.447 775.43L179.606 750.035L201.955 758.169Z" fill="#5484CD" fill-opacity="0.49"/>
</g>
<g clip-path="url(#clip1_11_36)">
<path d="M187.982 236.9L147.677 191L160.086 176.9L212.887 236.9L181.294 272.8L168.886 258.6L187.982 236.9ZM31.5142 159.1L68.3871 201L36.8823 236.9L89.6837 296.9L102.092 282.8L61.787 236.9L80.8835 215.2L193.35 343L205.759 328.9L44.0105 145L31.5142 159.1Z" fill="#4C81D1"/>
</g>
<g clip-path="url(#clip2_11_36)">
<path d="M561.292 157.553L559.523 161.203L564.307 164.189L566.072 160.541L561.29 157.554L561.292 157.553ZM593.804 146.817L591.173 152.252L594.386 154.256L597.015 148.825L593.802 146.818L593.804 146.817ZM577.868 153.44C577.286 153.641 576.705 153.874 576.131 154.153C576.113 154.159 576.095 154.161 576.078 154.171C569.141 157.475 565.114 165.95 566.198 174.397C567.076 181.193 570.962 186.335 575.889 188.846C577.906 189.88 579.549 191.67 580.543 193.916L583.628 205.979L587.662 204.647C588.585 205.644 589.916 206.084 591.22 205.653C592.524 205.222 593.44 204.041 593.749 202.637L597.783 201.305L595.727 193.263L595.893 193.208L595.282 190.82C594.528 187.872 595.117 184.455 596.716 181.422C598.794 177.121 599.795 171.655 598.404 166.217C595.864 156.285 586.574 150.465 577.868 153.44ZM578.896 157.461C585.707 155.095 592.88 159.624 594.865 167.385C595.942 171.595 595.174 175.87 593.487 179.353L593.56 179.398C591.832 182.652 591.157 186.49 591.654 190.249L583.914 192.805C582.644 189.487 580.49 186.581 577.421 185C573.523 183.017 570.498 179.088 569.809 173.751C568.962 167.163 572.183 160.577 577.546 158.049C577.985 157.825 578.434 157.63 578.893 157.465L578.896 157.461ZM557.709 179.655L558.737 183.676L564.045 181.923L563.017 177.902L557.709 179.655ZM601.943 165.048L602.971 169.069L608.279 167.317L607.251 163.295L601.943 165.048ZM571.602 192.715L568.973 198.147L572.186 200.153L574.811 194.721L571.602 192.715ZM601.681 182.783L599.916 186.431L604.696 189.418L606.462 185.767L601.681 182.783ZM585.111 196.771L592.188 194.434L593.217 198.455L586.139 200.792L585.111 196.771Z" fill="#5484CD" fill-opacity="0.49"/>
</g>
<g clip-path="url(#clip3_11_36)">
<path d="M520.577 376.834L532.767 381.873C534.496 382.588 535.943 383.954 536.816 385.695C537.688 387.436 537.922 389.423 537.47 391.253C537.017 393.083 535.912 394.621 534.378 395.555C532.844 396.49 530.994 396.751 529.204 396.287L528.264 395.973L516.069 390.932C514.486 390.277 512.771 390.211 511.216 390.745L510.318 391.135L484.663 404.542L516.192 417.58C521.233 419.664 525.482 423.597 528.124 428.625C530.766 433.653 531.614 439.423 530.507 444.827L548.952 452.451C551.159 447.5 555.072 443.699 559.941 441.775C564.809 439.851 570.29 439.94 575.332 442.025L606.964 455.095L594.806 426.047C594.119 424.405 592.928 423.031 591.436 422.159L590.511 421.702L578.266 416.641C576.538 415.925 575.093 414.558 574.221 412.817C573.349 411.076 573.116 409.09 573.569 407.26C574.022 405.43 575.127 403.893 576.661 402.959C578.195 402.025 580.044 401.764 581.834 402.229L582.783 402.546L595.023 407.606C600.147 409.724 604.449 413.75 607.079 418.889L607.887 420.627L629.144 471.419C629.435 472.119 629.627 472.837 629.72 473.546C631.347 478.31 631.548 483.57 629.955 488.546L619.436 521.405C616.843 529.505 611.242 535.986 603.863 539.422C596.485 542.858 587.935 542.967 580.094 539.726L557.36 530.329C549.519 527.088 543.029 520.762 539.318 512.742C535.607 504.722 534.979 495.666 537.572 487.566L544.307 466.493L526.104 458.969L519.368 480.042C516.775 488.142 511.174 494.623 503.796 498.059C496.417 501.495 487.867 501.604 480.026 498.363L457.292 488.966C449.451 485.725 442.961 479.399 439.25 471.379C435.539 463.359 434.911 454.303 437.504 446.203L448.021 413.349C449.71 408.072 453.129 404.021 457.408 401.592L457.92 401.218L458.473 400.889L503.313 377.444C508.039 374.973 513.582 374.53 518.843 376.202L520.576 376.838L532.766 381.877L520.576 376.838L520.577 376.834ZM511.673 431.679L470.745 414.762C468.936 414.014 466.963 414.039 465.26 414.832C463.557 415.625 462.265 417.12 461.666 418.99L451.149 451.843C450.458 454.003 450.185 456.312 450.347 458.638C450.508 460.964 451.1 463.262 452.09 465.4C453.079 467.538 454.446 469.475 456.113 471.1C457.78 472.724 459.714 474.005 461.805 474.87L484.538 484.267C488.761 486.012 493.365 485.953 497.337 484.103C501.31 482.253 504.327 478.763 505.723 474.401L516.24 441.547C516.838 439.678 516.693 437.588 515.837 435.738C514.98 433.887 513.483 432.427 511.673 431.679ZM611.741 473.042L570.813 456.125C569.004 455.377 567.031 455.402 565.328 456.195C563.625 456.988 562.333 458.483 561.734 460.353L551.217 493.206C550.526 495.366 550.253 497.675 550.414 500.001C550.576 502.327 551.168 504.625 552.158 506.763C553.147 508.901 554.514 510.838 556.181 512.463C557.848 514.087 559.782 515.369 561.873 516.233L584.606 525.63C588.829 527.375 593.432 527.316 597.405 525.466C601.378 523.616 604.394 520.126 605.791 515.764L616.308 482.91C616.906 481.041 616.761 478.951 615.905 477.101C615.048 475.25 613.551 473.79 611.741 473.042Z" fill="#5484CD" fill-opacity="0.49"/>
</g>
<defs>
<clipPath id="clip0_11_36">
<rect width="285.398" height="316.624" fill="white" transform="matrix(0.939691 0.342026 -0.271306 0.962493 33.902 655)"/>
</clipPath>
<clipPath id="clip1_11_36">
<rect width="211.206" height="240" fill="white" transform="translate(19.2819 77)"/>
</clipPath>
<clipPath id="clip2_11_36">
<rect width="59.6264" height="66.409" fill="white" transform="matrix(0.949569 -0.313559 0.247756 0.968822 548 156.696)"/>
</clipPath>
<clipPath id="clip3_11_36">
<rect width="236.247" height="236.816" fill="white" transform="matrix(0.924162 0.382002 -0.304875 0.952393 463.67 300.106)"/>
</clipPath>
</defs>
</svg>
